<svg width="42" height="42" viewBox="0 0 42 42" fill="none" xmlns="http://www.w3.org/2000/svg">
<circle cx="21" cy="21" r="21" fill="white"/>
<circle cx="21" cy="21" r="20.5" stroke="#109D48" stroke-opacity="0.82"/>
<path d="M30 13.2828H24.0478V7H17.9522V13.2828H12V19.7172H17.9522V26H24.0478V19.7172H30V13.2828Z" fill="#109D48"/>
<path d="M27.6724 33.2117H7V28H32.8812L27.6724 33.2117Z" fill="#109D48"/>
<path d="M27.6694 33.2117L32.8812 28H35.2501L30.0383 33.2117H27.6694Z" fill="#FCD305"/>
<path d="M11.2193 31.972H11.5097V31.3502H11.2193C11.2193 31.3502 10.5455 31.4245 10.5455 30.3942C10.5455 29.3639 11.2193 29.4381 11.2193 29.4381H11.5097V28.8164H11.2193C10.8272 28.8545 10.4634 29.0372 10.1987 29.3288C9.93398 29.6205 9.78735 30.0003 9.78735 30.3942C9.78735 30.7881 9.93398 31.1678 10.1987 31.4595C10.4634 31.7512 10.8272 31.9339 11.2193 31.972Z" fill="white"/>
<path d="M15.1401 31.2645V29.7617H14.5183V31.2645C14.521 31.2985 14.5161 31.3328 14.5042 31.3648C14.4922 31.3968 14.4734 31.4258 14.4491 31.4497C14.4247 31.4737 14.3954 31.4921 14.3633 31.5036C14.3311 31.5151 14.2968 31.5194 14.2628 31.5163C14.229 31.5183 14.1952 31.5132 14.1636 31.5013C14.1319 31.4894 14.1031 31.471 14.079 31.4472C14.0549 31.4235 14.0361 31.395 14.0237 31.3635C14.0114 31.332 14.0057 31.2983 14.0072 31.2645V29.7617H13.3848V31.2645C13.3848 31.3915 13.4152 31.9858 14.2621 31.9858C15.1089 31.9858 15.1401 31.4011 15.1401 31.2645Z" fill="white"/>
<path d="M19.3572 28.8154L18.9115 31.0298L18.4658 28.8154H17.6858L18.4754 31.971H19.3505L20.1401 28.8154H19.3572Z" fill="white"/>
<path d="M12.4413 30.1763V29.7617H11.8196V31.9717H12.4413V31.1018C12.4413 31.1018 12.5082 30.2431 13.1842 30.2431V29.7617C13.0324 29.7431 12.8786 29.7732 12.745 29.8477C12.6115 29.9222 12.5051 30.0373 12.4413 30.1763Z" fill="white"/>
<path d="M22.9011 30.1763V29.7617H22.2793V31.9717H22.9011V31.1018C22.9011 31.1018 22.9679 30.2431 23.6439 30.2431V29.7617C23.4921 29.7431 23.3383 29.7732 23.2048 29.8477C23.0712 29.9222 22.9649 30.0373 22.9011 30.1763Z" fill="white"/>
<path d="M17.2437 29.7617H15.4141V30.2431H16.1889L15.2009 31.9717H17.1717V31.4903H16.2558L17.2437 29.7617Z" fill="white"/>
<path d="M20.6621 31.0312H21.9762C21.9762 30.4681 21.8834 29.7394 21.0499 29.7394C20.9057 29.7326 20.7618 29.7575 20.6283 29.8124C20.4948 29.8673 20.375 29.9509 20.2773 30.0571C20.1796 30.1634 20.1065 30.2898 20.063 30.4274C20.0195 30.565 20.0067 30.7105 20.0255 30.8536C20.0183 30.9978 20.0405 31.1419 20.0909 31.2772C20.1412 31.4125 20.2187 31.5361 20.3185 31.6404C20.4182 31.7447 20.5383 31.8276 20.6712 31.8839C20.8041 31.9402 20.9472 31.9688 21.0915 31.9679C21.389 31.9906 21.6847 31.9051 21.9242 31.7272V31.2986C21.7104 31.4156 21.4752 31.4883 21.2327 31.5125C21.0949 31.5168 20.9605 31.47 20.8552 31.3811C20.7499 31.2923 20.6811 31.1676 20.6621 31.0312ZM20.9778 30.2036C21.3099 30.2036 21.2988 30.711 21.2988 30.711H20.6584C20.6584 30.711 20.6347 30.2036 20.9778 30.2036Z" fill="white"/>
<path d="M26.6807 31.0312H27.9948C27.9948 30.4681 27.9019 29.7394 27.0692 29.7394C26.925 29.7326 26.7811 29.7575 26.6476 29.8124C26.5141 29.8673 26.3943 29.9509 26.2966 30.0571C26.199 30.1634 26.1258 30.2898 26.0823 30.4274C26.0387 30.565 26.026 30.7105 26.0448 30.8536C26.0375 30.9978 26.0598 31.1419 26.1101 31.2772C26.1605 31.4125 26.238 31.5361 26.3377 31.6404C26.4375 31.7447 26.5576 31.8276 26.6905 31.8839C26.8234 31.9402 26.9664 31.9688 27.1108 31.9679C27.4083 31.9906 27.704 31.9051 27.9435 31.7272V31.2986C27.7297 31.4156 27.4945 31.4884 27.2519 31.5125C27.1141 31.5169 26.9795 31.4702 26.874 31.3814C26.7686 31.2925 26.6997 31.1678 26.6807 31.0312ZM26.9964 30.2036C27.3285 30.2036 27.3173 30.711 27.3173 30.711H26.6807C26.6807 30.711 26.6532 30.2036 26.9964 30.2036Z" fill="white"/>
<path d="M25.0784 28.8159V30.023C25.0204 29.9365 24.9407 29.8667 24.8472 29.8207C24.7537 29.7746 24.6498 29.754 24.5458 29.7608C24.0124 29.7608 23.7354 30.2452 23.7354 30.9189C23.7354 31.5927 24.1313 31.9737 24.5049 31.9737C24.612 31.9753 24.7181 31.9547 24.8168 31.9133C24.9155 31.8719 25.0046 31.8105 25.0784 31.733V31.9737H25.7002V28.8182L25.0784 28.8159ZM25.0784 31.2279C25.0784 31.2279 24.9298 31.5094 24.727 31.5094C24.5242 31.5094 24.3757 31.2353 24.3757 30.8654C24.3757 30.4955 24.4945 30.2065 24.7307 30.2065C24.803 30.2104 24.8731 30.233 24.934 30.2721C24.9949 30.3111 25.0447 30.3653 25.0784 30.4294V31.2279Z" fill="white"/>
<path d="M28.7116 30.5751C28.6468 30.5751 28.5835 30.5559 28.5296 30.5199C28.4758 30.4839 28.4338 30.4327 28.409 30.3729C28.3842 30.313 28.3777 30.2472 28.3903 30.1836C28.403 30.1201 28.4342 30.0617 28.48 30.0159C28.5258 29.9701 28.5842 29.9389 28.6477 29.9262C28.7113 29.9136 28.7771 29.9201 28.837 29.9449C28.8968 29.9696 28.948 30.0117 28.984 30.0655C29.02 30.1194 29.0392 30.1827 29.0392 30.2475C29.0392 30.3344 29.0047 30.4177 28.9433 30.4792C28.8818 30.5406 28.7985 30.5751 28.7116 30.5751ZM28.7116 29.9808C28.6589 29.9808 28.6073 29.9965 28.5635 30.0258C28.5196 30.0551 28.4854 30.0967 28.4652 30.1455C28.4451 30.1942 28.4398 30.2478 28.4501 30.2995C28.4604 30.3513 28.4858 30.3988 28.5231 30.4361C28.5603 30.4734 28.6079 30.4988 28.6596 30.5091C28.7113 30.5194 28.7649 30.5141 28.8137 30.4939C28.8624 30.4737 28.904 30.4395 28.9334 30.3957C28.9627 30.3518 28.9783 30.3003 28.9783 30.2475C28.9781 30.1768 28.95 30.1091 28.9 30.0592C28.85 30.0092 28.7823 29.981 28.7116 29.9808Z" fill="white"/>
<path d="M28.584 30.411V30.0841H28.7325C28.7549 30.0833 28.7773 30.0863 28.7987 30.093C28.8139 30.0991 28.8267 30.1101 28.835 30.1243C28.844 30.139 28.8486 30.156 28.8484 30.1733C28.8488 30.184 28.847 30.1948 28.8431 30.2048C28.8393 30.2149 28.8335 30.2241 28.8261 30.232C28.8071 30.2498 28.7824 30.2606 28.7563 30.2624C28.7657 30.2666 28.7745 30.2721 28.7823 30.2787C28.7961 30.2918 28.808 30.3065 28.818 30.3226L28.8752 30.4117H28.8209L28.7779 30.3434C28.7652 30.3241 28.7548 30.3085 28.7467 30.2981C28.7405 30.2897 28.7329 30.2825 28.7244 30.2765C28.7186 30.2724 28.712 30.2694 28.7051 30.2676C28.6969 30.2668 28.6887 30.2668 28.6805 30.2676H28.6271V30.4162L28.584 30.411ZM28.6271 30.2282H28.7199C28.7357 30.2289 28.7516 30.2269 28.7667 30.2223C28.7771 30.2188 28.7859 30.2121 28.792 30.203C28.7979 30.1942 28.801 30.1838 28.8009 30.1733C28.801 30.1661 28.7995 30.159 28.7966 30.1524C28.7936 30.1459 28.7892 30.1401 28.7838 30.1354C28.7683 30.1242 28.7494 30.1189 28.7303 30.1205H28.6271V30.2282Z" fill="white"/>
</svg>
